<svg xmlns="http://www.w3.org/2000/svg" width="26" height="28" fill="none" viewBox="0 0 26 28"><path stroke="#031220" stroke-linecap="round" stroke-linejoin="round" stroke-miterlimit="10" stroke-width="1.5" d="M7.76264 21.5L2.75015 16.4875C1.07515 14.8125 1.07515 13.15 2.75015 11.475L11.1001 3.125L20.2876 12.3125C20.7501 12.775 20.7501 13.525 20.2876 13.9875L12.7626 21.5125C11.1126 23.1625 9.43764 23.1625 7.76264 21.5Z"/><path stroke="#292D32" stroke-linecap="round" stroke-linejoin="round" stroke-miterlimit="10" stroke-width="1.5" d="M9.4375 1.4375L11.1125 3.11246"/><path stroke="#031220" stroke-linecap="round" stroke-linejoin="round" stroke-miterlimit="10" stroke-width="1.5" d="M1.58765 13.9002L20.4876 13.0752"/><path stroke="#007A70" stroke-linecap="round" stroke-linejoin="round" stroke-miterlimit="10" stroke-width="1.5" d="M2.75 26.5H19"/><path fill="#007A70" stroke="#007A70" stroke-linecap="round" stroke-linejoin="round" d="M22.5625 17.75C22.5625 17.75 20.25 20.2625 20.25 21.8C20.25 23.075 21.2875 24.1125 22.5625 24.1125C23.8375 24.1125 24.875 23.075 24.875 21.8C24.875 20.2625 22.5625 17.75 22.5625 17.75Z"/></svg>